<svg xmlns="http://www.w3.org/2000/svg" width="100" height="85" viewBox="0 0 100 85" fill="none"><path d="M0 0.00105701H11.8377C17.0537 0.00105701 20.6046 3.51908 20.6046 7.99032C20.6046 13.3408 15.6478 16.0535 10.5802 16.0535H6.51087V20.6717C6.51087 23.1266 7.36205 25.7654 7.43565 26.242V26.3889H0V26.242C0.0735992 25.7654 0.924782 23.1266 0.924782 20.6717V5.71824C0.924782 3.26334 0.0735992 0.624557 0 0.147949V0.00105701ZM14.7977 7.99032C14.7977 5.27862 13.5401 1.64963 9.98813 1.64963H6.51087V14.4039H9.84094C13.3918 14.4039 14.7977 10.9218 14.7977 7.99032Z" fill="#14C114"></path><path d="M28.1288 5.71824V24.8861H32.3826C35.5271 24.8861 38.9308 19.9753 39.559 19.6086H39.7062V26.3889H21.6168V26.242C21.7277 25.7654 22.5789 23.1266 22.5789 20.6717V5.71824C22.5789 3.26334 21.7277 0.624557 21.6168 0.147949V0.00105701H29.0525V0.147949C28.9799 0.6235 28.1288 3.26334 28.1288 5.71824Z" fill="#14C114"></path><path d="M41.5633 26.279C42.6726 24.9231 44.7078 22.0645 46.6683 18.8392L55.5461 4.47229C56.7301 2.56692 56.4346 0.440678 56.3973 0.110962L56.4346 0.00105701H62.4271L64.2766 20.4519C64.4985 22.9807 64.8686 24.8132 65.4233 26.279L65.387 26.3889H57.433L57.4703 26.242C57.7295 25.6924 59.1716 22.9438 58.9498 20.4149L58.6906 17.4094H49.4427L48.3334 19.2788C46.5211 22.3213 46.8166 25.5825 46.8166 26.206L46.7792 26.3889H41.5259L41.5633 26.279ZM58.5423 15.7968L57.5066 4.3254L50.4784 15.7968H58.5423Z" fill="#14C114"></path><path d="M68.0067 26.242C68.2659 25.7654 69.7827 23.1266 70.4483 20.6717L71.595 16.3833L68.9689 5.20464C68.5251 2.96955 67.5257 0.660488 67.3785 0.146892L67.4521 0H75.7016L75.6643 0.146892C75.4424 0.696418 74.1475 3.3352 74.6285 5.79116L76.4045 14.6237L82.6189 6.45059C84.6167 3.73889 84.6167 0.806323 84.6903 0.18388L84.7276 0.00105701H89.9063L89.8689 0.147949C89.4988 0.624557 87.1692 3.00654 85.5778 5.2057L77.1064 16.3843L75.9224 20.6727C75.2568 23.1276 75.3677 25.7664 75.3304 26.243L75.2931 26.3899H68.0057V26.242H68.0067Z" fill="#14C114"></path><path d="M0 29.2696H11.9849C16.9417 29.2696 20.3827 32.2751 20.3827 36.0869C20.3827 39.4221 17.8302 41.2176 15.0558 42.1338C18.3859 42.9402 21.6403 44.8085 21.6403 48.7672C21.6403 53.3484 17.3118 55.6574 12.3551 55.6574H0V55.5105C0.110932 55.0339 0.962125 52.3952 0.962125 49.9403V34.9868C0.962125 32.5319 0.111999 29.8931 0 29.4165V29.2696ZM14.5747 36.0869C14.5747 33.595 13.1326 30.8464 10.0991 30.8464H6.51087V41.5114H9.98813C13.0217 41.5114 14.5747 38.7627 14.5747 36.0869ZM15.8697 48.7313C15.8697 45.4701 14.0201 43.0511 10.4692 43.0511H6.51087V54.0828H10.4692C14.1684 54.0818 15.8697 52.1024 15.8697 48.7313Z" fill="#14C114"></path><path d="M24.6227 42.2078C26.6568 33.9617 32.982 28.7571 39.7148 28.867C46.3739 29.0139 50.0357 34.4373 48.0379 42.6104C46.0038 50.8935 39.6038 56.171 32.9084 56.0611C26.213 55.9512 22.5875 50.4898 24.6227 42.2078ZM42.0081 42.5005C43.3403 36.9662 43.0811 30.5166 39.3073 30.4427C35.5345 30.3698 32.0199 36.8563 30.6514 42.3906C29.2829 47.962 29.5048 54.4485 33.2775 54.5214C37.0513 54.5584 40.6022 48.0719 42.0081 42.5005Z" fill="#14C114"></path><path d="M50.7867 42.2078C52.8208 33.9617 59.1471 28.7571 65.8798 28.867C72.5379 29.0139 76.2008 34.4373 74.2029 42.6104C72.1688 50.8935 65.7689 56.171 59.0735 56.0611C52.377 55.9512 48.7515 50.4898 50.7867 42.2078ZM68.1721 42.5005C69.5033 36.9662 69.2451 30.5166 65.4713 30.4427C61.6985 30.3698 58.1839 36.8563 56.8154 42.3906C55.4469 47.962 55.6687 54.4485 59.4426 54.5214C63.2153 54.5584 66.7662 48.0719 68.1721 42.5005Z" fill="#14C114"></path><path d="M83.0946 55.6574H75.6589V55.5105C75.7699 55.0339 76.62 52.3952 76.62 49.9403V34.9868C76.62 32.5319 75.7699 29.8931 75.6589 29.4165V29.2696H83.0946V29.4165C83.021 29.8931 82.1698 32.5319 82.1698 34.9868V49.9403C82.1698 52.3952 83.021 55.0339 83.0946 55.5105V55.6574ZM89.5319 51.2602L82.7618 42.4276C82.6882 42.3177 82.6509 42.2448 82.8354 42.1349L84.093 40.9619L89.9383 35.4275C92.6017 32.9715 92.1953 30.077 92.0097 29.3806V29.1608H99.2235V29.3447C98.0022 30.1869 96.7083 31.36 95.1169 32.7898L87.4967 39.9368L96.3382 51.3342C97.7803 53.2395 99.7781 55.2918 100 55.5127V55.6595H91.4177C91.1585 55.3647 90.8268 53.1286 89.5319 51.2602Z" fill="#14C114"></path><path d="M3.59356 63.5188L3.62236 83.7858L9.98495 83.7763C12.3892 83.7731 14.643 81.7906 15.8985 80.7993H16.0468L16.0532 84.9778L0.220779 85V84.8901C0.441577 83.864 0.845847 82.0305 0.842647 80.0881L0.819158 63.5231C0.815958 61.5807 0.406367 59.7493 0.183436 58.7232V58.6133L4.25272 58.608V58.7179C3.99565 59.7429 3.59142 61.5765 3.59356 63.5188Z" fill="#F7FFE6"></path><path d="M18.1449 84.9028C19.1422 83.8016 20.5075 81.6743 21.8728 79.51L32.981 61.6462C33.7191 60.4362 33.829 59.2632 33.6796 58.6397L33.717 58.5668L36.9351 58.5625L38.9638 79.8894C39.1889 81.9047 39.3393 83.5173 39.8588 84.8721L39.8225 84.9451L35.5687 84.9514L35.606 84.8415C36.1596 83.6674 36.4892 81.8349 36.3015 79.8197L35.926 75.862L25.6424 75.8768L23.8344 78.8844C22.3581 81.2685 21.732 83.4687 21.7341 84.8246L21.6979 84.9715L18.1097 84.9768L18.1449 84.9028ZM35.7746 74.6161L34.5724 61.4972L26.4904 74.6288L35.7746 74.6161Z" fill="#F7FFE6"></path><path d="M41.8108 58.553L51.7989 58.5393C56.3119 58.5329 59.6079 61.4602 59.6132 65.0522C59.6175 68.1306 57.5493 70.223 54.8506 71.2523C57.9962 72.1274 60.8473 74.2124 60.8527 77.9502C60.8591 82.4215 56.7194 84.9197 51.6517 84.9271L41.8491 84.9408V84.8309C42.0699 83.8048 42.4742 81.9713 42.471 80.0289L42.4465 63.4639C42.4433 61.5215 42.0337 59.6901 41.8108 58.664V58.553ZM56.6159 65.0554C56.6117 62.014 54.7952 59.744 51.0597 59.7493L45.2145 59.7577L45.2304 70.7525L50.7792 70.744C54.5157 70.7398 56.6213 68.6115 56.6159 65.0554ZM57.8927 77.9914C57.8863 73.8869 54.777 72.0217 50.8923 72.027L47.5632 72.0322L45.2326 72.0724L45.2497 83.7266L50.9093 83.7181C55.7551 83.7118 57.898 81.6194 57.8927 77.9914Z" fill="#F7FFE6"></path></svg>